<svg xmlns="http://www.w3.org/2000/svg" xmlns:xlink="http://www.w3.org/1999/xlink" width="18" height="19" viewBox="0 0 18 19"><defs><path id="cbmva" d="M339.5 594.48v1.5c0 .25-.18.44-.42.44h-1.45a.42.42 0 0 1-.42-.43v-1.5c0-.25.19-.44.42-.44h1.45c.24 0 .42.2.42.43zm3.65 1.5c0 .25-.19.44-.42.44h-1.46a.42.42 0 0 1-.42-.43v-1.5c0-.25.19-.44.42-.44h1.46c.23 0 .42.2.42.43zm3.64 0c0 .25-.19.44-.42.44h-1.45a.42.42 0 0 1-.42-.43v-1.5c0-.25.18-.44.42-.44h1.45c.23 0 .42.2.42.43zm-7.29 2.26v1.5c0 .25-.18.44-.42.44h-1.45a.42.42 0 0 1-.42-.43v-1.5c0-.24.19-.44.42-.44h1.45c.24 0 .42.2.42.43zm3.65 1.5c0 .25-.19.44-.42.44h-1.46a.42.42 0 0 1-.42-.43v-1.5c0-.24.19-.44.42-.44h1.46c.23 0 .42.2.42.43zm3.64-1.5v1.5c0 .25-.19.44-.42.44h-1.45a.42.42 0 0 1-.42-.43v-1.5c0-.24.18-.44.42-.44h1.45c.23 0 .42.2.42.43zm4.21-10.42v13.47c0 .94-.74 1.71-1.65 1.71h-14.7c-.91 0-1.65-.77-1.65-1.71v-13.47c0-.93.72-1.68 1.6-1.7v2.3c0 1.03.82 1.87 1.82 1.87h1.16c1 0 1.83-.84 1.83-1.88v-2.3h5.18v2.3c0 1.04.83 1.88 1.84 1.88h1.14c1.01 0 1.83-.84 1.83-1.88v-2.3c.88.03 1.6.78 1.6 1.7zm-2.14 12.63v-6.96c0-.4-.32-.74-.71-.74h-12.33c-.4 0-.72.33-.72.74v6.96c0 .4.32.73.72.73h12.33c.4 0 .71-.33.71-.73zM335.8 588.4v-3.77c0-.35.28-.64.62-.64h1.14c.34 0 .62.29.62.64v3.77c0 .36-.28.65-.62.65h-1.14a.64.64 0 0 1-.62-.65zm9.99 0v-3.77c0-.35.28-.64.62-.64h1.14c.34 0 .62.29.62.64v3.77c0 .36-.28.65-.62.65h-1.14a.64.64 0 0 1-.62-.65z"/></defs><g><g transform="translate(-333 -584)"><use fill="#bababa" xlink:href="#cbmva"/></g></g></svg>