<svg xmlns="http://www.w3.org/2000/svg" xmlns:xlink="http://www.w3.org/1999/xlink" width="28" height="16" viewBox="0 0 28 16"><defs><path id="91uha" d="M1224.6 412.1c-3.06 0-6.36-1.24-9.54-3.59a24.47 24.47 0 0 1-3.9-3.56.82.82 0 0 1 0-1.04c.06-.08 1.53-1.81 3.9-3.57 3.18-2.34 6.48-3.58 9.55-3.58 3.06 0 6.36 1.24 9.54 3.58a24.46 24.46 0 0 1 3.9 3.57c.26.3.26.74 0 1.04-.06.07-1.52 1.81-3.9 3.56-3.18 2.35-6.48 3.59-9.54 3.59zm-11.8-7.67c.6.62 1.71 1.72 3.19 2.8 2.02 1.5 5.16 3.27 8.62 3.27 3.45 0 6.59-1.77 8.61-3.26a24.59 24.59 0 0 0 3.2-2.81c-.6-.63-1.72-1.73-3.2-2.81-2.02-1.5-5.16-3.27-8.61-3.27-3.46 0-6.6 1.78-8.62 3.27a24.58 24.58 0 0 0-3.2 2.8zm11.8 4.94a4.87 4.87 0 0 1-4.77-4.94 4.87 4.87 0 0 1 4.78-4.94c1.16 0 2.27.43 3.15 1.22.32.29.35.8.07 1.12a.75.75 0 0 1-1.09.08 3.17 3.17 0 0 0-2.13-.83 3.3 3.3 0 0 0-3.24 3.35 3.3 3.3 0 0 0 3.24 3.35 3.3 3.3 0 0 0 3.24-3.35c0-.44.34-.8.77-.8.42 0 .77.36.77.8a4.87 4.87 0 0 1-4.78 4.94zm0-3.35c-.84 0-1.54-.71-1.54-1.6 0-.87.7-1.59 1.55-1.59.85 0 1.54.72 1.54 1.6 0 .88-.7 1.6-1.54 1.6z"/></defs><g><g transform="translate(-1211 -396)"><use fill="#068bca" xlink:href="#91uha"/></g></g></svg>