<svg xmlns="http://www.w3.org/2000/svg" xmlns:xlink="http://www.w3.org/1999/xlink" width="15" height="15" viewBox="0 0 15 15"><defs><path id="u292a" d="M1093.7 159.75a.99.99 0 0 0-.72-.3h-4.43v-4.43c0-.28-.1-.52-.3-.72a.99.99 0 0 0-.73-.3h-2.04c-.29 0-.53.1-.73.3-.2.2-.3.44-.3.72v4.43h-4.43c-.28 0-.52.1-.72.3-.2.2-.3.44-.3.73v2.04c0 .29.1.53.3.73.2.2.44.3.72.3h4.43v4.43c0 .28.1.52.3.72.2.2.44.3.73.3h2.04c.29 0 .53-.1.73-.3.2-.2.3-.44.3-.72v-4.43h4.43c.28 0 .52-.1.72-.3.2-.2.3-.44.3-.73v-2.04c0-.29-.1-.53-.3-.73z"/></defs><g><g transform="translate(-1079 -154)"><use fill="#fff" xlink:href="#u292a"/></g></g></svg>