<svg xmlns="http://www.w3.org/2000/svg" xmlns:xlink="http://www.w3.org/1999/xlink" width="27" height="6" viewBox="0 0 27 6"><defs><path id="w3mca" d="M1216.1 504c1.73 0 3.12 1.34 3.12 3s-1.4 3-3.11 3a3.06 3.06 0 0 1-3.11-3c0-1.66 1.4-3 3.1-3zm10.4 0a3.06 3.06 0 0 1 3.12 3c0 1.66-1.4 3-3.12 3a3.06 3.06 0 0 1-3.13-3c0-1.66 1.4-3 3.13-3zm10.4 0c1.7 0 3.1 1.34 3.1 3s-1.4 3-3.1 3a3.06 3.06 0 0 1-3.12-3c0-1.66 1.4-3 3.11-3z"/></defs><g><g transform="translate(-1213 -504)"><use fill="#d6d6d6" xlink:href="#w3mca"/></g></g></svg>