<svg xmlns="http://www.w3.org/2000/svg" xmlns:xlink="http://www.w3.org/1999/xlink" width="17" height="17" viewBox="0 0 17 17"><defs><path id="ok5ga" d="M1198 401.43a8.4 8.4 0 0 1-8.33 8.44 8.4 8.4 0 0 1-8.34-8.44 8.4 8.4 0 0 1 8.34-8.44 8.4 8.4 0 0 1 8.33 8.44zm-1.37 0a7.02 7.02 0 0 0-6.96-7.06 7.02 7.02 0 0 0-6.97 7.06 7.02 7.02 0 0 0 6.97 7.05 7.02 7.02 0 0 0 6.96-7.05zm-3.64 2.38a.7.7 0 0 1 0 .98.68.68 0 0 1-.97 0l-2.35-2.38-2.36 2.38a.68.68 0 0 1-.97 0 .7.7 0 0 1 0-.98l2.36-2.38-2.36-2.39a.7.7 0 0 1 0-.98c.27-.27.7-.27.97 0l2.36 2.39 2.35-2.39c.27-.27.7-.27.97 0a.7.7 0 0 1 0 .98l-2.36 2.39z"/></defs><g><g transform="translate(-1181 -393)"><use fill="#f5f5f5" xlink:href="#ok5ga"/></g></g></svg>