<svg xmlns="http://www.w3.org/2000/svg" xmlns:xlink="http://www.w3.org/1999/xlink" width="21" height="21" viewBox="0 0 21 21"><defs><path id="vzjha" d="M1186.81 279.69a2.7 2.7 0 1 1 5.39 0 2.7 2.7 0 0 1-5.39 0zm1.03 0a1.67 1.67 0 1 0 3.33 0 1.67 1.67 0 0 0-3.33 0zm-2.44 9.09v-1.28a4.1 4.1 0 0 1 8.2 0v1.28c0 .28-.23.51-.51.51h-7.18a.51.51 0 0 1-.5-.51zm1.03-.51h6.14v-.77a3.08 3.08 0 0 0-6.14 0zm13.57 2.56v6.66c0 .28-.23.51-.51.51h-19.98a.51.51 0 0 1-.51-.51v-6.66c0-.28.23-.51.51-.51h19.98c.28 0 .51.23.51.5zm-1.02 6.15v-5.64h-18.96v5.64zm-12.89-2.5l.57-.32-.57-.33a.51.51 0 0 1 .52-.88l.56.32v-.65a.51.51 0 0 1 1.02 0v.65l.57-.32a.51.51 0 0 1 .5.88l-.55.33.56.32a.51.51 0 1 1-.51.89l-.57-.32v.65a.51.51 0 0 1-1.02 0v-.65l-.56.32a.51.51 0 0 1-.7-.19.51.51 0 0 1 .18-.7zm4.71 0l.57-.32-.57-.33a.51.51 0 1 1 .52-.88l.56.32v-.65a.51.51 0 0 1 1.02 0v.65l.57-.32a.51.51 0 1 1 .5.88l-.55.33.56.32a.51.51 0 1 1-.51.89l-.57-.32v.65a.51.51 0 0 1-1.02 0v-.65l-.56.32a.51.51 0 0 1-.7-.19.51.51 0 0 1 .18-.7zm-9.42 0l.57-.32-.57-.33a.51.51 0 1 1 .52-.88l.56.32v-.65a.51.51 0 0 1 1.02 0v.65l.57-.32a.51.51 0 1 1 .5.88l-.55.33.56.32a.51.51 0 1 1-.51.89l-.57-.32v.65a.51.51 0 0 1-1.02 0v-.65l-.56.32a.51.51 0 0 1-.7-.19.51.51 0 0 1 .18-.7zm13.65 1.22c0-.29.23-.52.51-.52h2.13a.51.51 0 0 1 0 1.03h-2.13a.51.51 0 0 1-.5-.51z"/></defs><g><g transform="translate(-1179 -277)"><use fill="#fff" xlink:href="#vzjha"/></g></g></svg>