<svg xmlns="http://www.w3.org/2000/svg" xmlns:xlink="http://www.w3.org/1999/xlink" width="17" height="17" viewBox="0 0 17 17"><defs><path id="mgu1a" d="M1197.94 367.43l-10.16 10.3a.6.6 0 0 1-.3.16l-5.3 1.11a.6.6 0 0 1-.55-.17.62.62 0 0 1-.16-.55l1.1-5.36a.62.62 0 0 1 .15-.31l10.17-10.3a.6.6 0 0 1 .85 0l2.1 2.13 2.1 2.13c.24.24.24.63 0 .86zm-15.1 10.18l3.3-.68-2.62-2.65zm13.82-10.6l-1.24-1.27-5.64 5.7a.6.6 0 0 1-.85 0 .62.62 0 0 1 0-.86l5.63-5.7-1.24-1.27-9.31 9.43 3.34 3.39z"/></defs><g><g transform="translate(-1181 -362)"><use fill="#f5f5f5" xlink:href="#mgu1a"/></g></g></svg>