<svg xmlns="http://www.w3.org/2000/svg" xmlns:xlink="http://www.w3.org/1999/xlink" width="22" height="22" viewBox="0 0 22 22"><defs><path id="64nua" d="M1045.77 160.9l-13.42 13.42a.8.8 0 0 1-.4.22l-7 1.44a.8.8 0 0 1-.72-.21.8.8 0 0 1-.21-.73l1.44-6.99a.8.8 0 0 1 .22-.4l13.41-13.42a.8.8 0 0 1 1.13 0L1043 157l2.78 2.78a.8.8 0 0 1 0 1.13zm-19.95 13.28l4.36-.9-3.46-3.46zm18.26-13.84l-1.65-1.64-7.44 7.43a.8.8 0 0 1-1.12 0 .8.8 0 0 1 0-1.12l7.43-7.44-1.64-1.65-12.3 12.3 4.42 4.41z"/></defs><g><g transform="translate(-1024 -154)"><use fill="#d2d2d2" xlink:href="#64nua"/></g></g></svg>