<svg xmlns="http://www.w3.org/2000/svg" xmlns:xlink="http://www.w3.org/1999/xlink" width="25" height="38" viewBox="0 0 25 38"><defs><path id="453qa" d="M402 68.74v6.6c0 .36-.3.66-.68.66h-23.64a.67.67 0 0 1-.68-.66v-6.6c0-3.5 2.16-6.6 5.37-7.93a6.86 6.86 0 0 1-2.12-4.39c-.16.05-.32.07-.5.07h-.43c-1 0-1.82-.8-1.82-1.78v-6.8a9.7 9.7 0 0 1 .69-3.6c.73-1.84 1.99-3.4 3.64-4.53 1.7-1.16 3.71-1.78 5.8-1.78h3.74c2.09 0 4.09.62 5.8 1.78a9.94 9.94 0 0 1 4.33 8.14V56a3.2 3.2 0 0 1-3.23 3.17h-.37c-.34.6-.77 1.15-1.27 1.63a8.61 8.61 0 0 1 5.37 7.93zm-1.9-12.3c-.14.04-.28.05-.42.05h-.44c-.17 0-.33-.02-.49-.07-.04.49-.13.96-.28 1.42.8-.09 1.44-.65 1.62-1.4zm.05-5.65c0-.25-.21-.46-.47-.46h-.44c-.25 0-.46.2-.46.46v3.92c0 .25.2.46.46.46h.44c.26 0 .47-.2.47-.46zm-19.93 0c0-.25-.2-.46-.46-.46h-.44c-.26 0-.47.2-.47.46v3.92c0 .25.2.46.47.46h.44c.25 0 .46-.2.46-.46zm7.87-10.29h2.82a7.8 7.8 0 0 1 7.87 7.7v.87c.15-.04.3-.06.46-.06h.44c.16 0 .32.02.47.06v-1.15a8.61 8.61 0 0 0-3.76-7.05 8.85 8.85 0 0 0-5.02-1.54h-3.75c-1.8 0-3.54.53-5.01 1.54a8.6 8.6 0 0 0-3.76 7.05v1.15c.15-.04.3-.06.47-.06h.44c.16 0 .31.02.46.06v-.87a7.8 7.8 0 0 1 7.87-7.7zm-6.51 7.7v3.21h3.94c1.67 0 3.28-.48 4.66-1.4a8.08 8.08 0 0 0 3.03-3.75.68.68 0 1 1 1.18-.15l3.03 4.16V48.2a6.45 6.45 0 0 0-6.5-6.37h-2.83a6.45 6.45 0 0 0-6.51 6.37zm2.54 12.3c.42.27.88.5 1.36.65l3.14 1.04c.57.18 1.2.18 1.75 0l3.15-1.04h.02a5.8 5.8 0 0 0 2.75-1.97h-4.16a.67.67 0 0 1-.68-.67c0-.36.3-.66.68-.66h4.9c.26-.64.4-1.32.4-2.02v-3.28l-3.46-4.74a9.72 9.72 0 0 1-8.45 4.93h-3.94v3.09c0 1.88.95 3.63 2.54 4.67zm9.08 2.15l-2.4.8c-.2.06-.41.11-.62.15v.63l3.64 1.92zm-5 .8l-2.4-.8-.62 3.5 3.64-1.92v-.63a4.17 4.17 0 0 1-.63-.16zm.62 6.02l-2.48-2.43-1.75.92a.69.69 0 0 1-.71-.05.66.66 0 0 1-.27-.65l.9-5.06c-.3-.12-.6-.27-.87-.43a7.3 7.3 0 0 0-5.29 6.98v5.92h10.47zm.68-1.2l1.92-1.89-1.92-1-1.92 1zm11.15 6.4v-5.93a7.3 7.3 0 0 0-5.3-6.97c-.27.16-.56.3-.85.43l.9 5.06c.04.25-.07.5-.28.65a.69.69 0 0 1-.72.05l-1.74-.92-2.48 2.43v5.2zm-2.42-4.4c0 .36-.3.66-.67.66h-3.43a.67.67 0 0 1-.68-.67c0-.36.3-.66.68-.66h3.43c.37 0 .67.3.67.66z"/></defs><g><g transform="translate(-377 -38)"><use xlink:href="#453qa"/></g></g></svg>